 <svg _ngcontent-xsd-c12="" fill="none" height="25" viewBox="0 0 24 25" width="24" xmlns="http://www.w3.org/2000/svg" class="ng-star-inserted">
                                                        <path
                                                            _ngcontent-xsd-c12=""
                                                            d="M17.6005 5.81L11.9505 2.77C11.3505 2.45 10.6405 2.45 10.0405 2.77L4.40047 5.81C3.99047 6.04 3.73047 6.48 3.73047 6.96C3.73047 7.45 3.98047 7.89 4.40047 8.11L10.0505 11.15C10.3505 11.31 10.6805 11.39 11.0005 11.39C11.3205 11.39 11.6605 11.31 11.9505 11.15L17.6005 8.11C18.0105 7.89 18.2705 7.45 18.2705 6.96C18.2705 6.48 18.0105 6.04 17.6005 5.81Z"
                                                            fill="#f11b1b"
                                                        ></path>
                                                        <path
                                                            _ngcontent-xsd-c12=""
                                                            d="M9.12 12.21L3.87 9.59C3.46 9.38 3 9.41 2.61 9.64C2.23 9.88 2 10.29 2 10.74V15.7C2 16.56 2.48 17.33 3.25 17.72L8.5 20.34C8.68 20.43 8.88 20.48 9.08 20.48C9.31 20.48 9.55 20.41 9.76 20.29C10.14 20.05 10.37 19.64 10.37 19.19V14.23C10.36 13.37 9.88 12.6 9.12 12.21Z"
                                                            fill="#f11b1b"
                                                        ></path>
                                                        <path
                                                            _ngcontent-xsd-c12=""
                                                            d="M19.9996 10.74V13.2C19.5196 13.06 19.0096 13 18.4996 13C17.1396 13 15.8096 13.47 14.7596 14.31C13.3196 15.44 12.4996 17.15 12.4996 19C12.4996 19.49 12.5596 19.98 12.6896 20.45C12.5396 20.43 12.3896 20.37 12.2496 20.28C11.8696 20.05 11.6396 19.64 11.6396 19.19V14.23C11.6396 13.37 12.1196 12.6 12.8796 12.21L18.1296 9.59C18.5396 9.38 18.9996 9.41 19.3896 9.64C19.7696 9.88 19.9996 10.29 19.9996 10.74Z"
                                                            fill="#f11b1b"
                                                        ></path>
                                                        <path
                                                            _ngcontent-xsd-c12=""
                                                            d="M21.6804 15.82C20.7904 14.93 19.6104 14.48 18.4404 14.5C17.3104 14.51 16.1804 14.96 15.3204 15.82C14.7204 16.41 14.3304 17.15 14.1404 17.92C14.0304 18.34 13.9904 18.77 14.0204 19.2V19.25C14.0204 19.32 14.0304 19.38 14.0404 19.46C14.0404 19.46 14.0404 19.46 14.0504 19.47V19.5C14.1404 20.48 14.5604 21.43 15.3204 22.18C16.4804 23.34 18.1104 23.73 19.5804 23.36C20.0204 23.25 20.4504 23.07 20.8504 22.83C21.1504 22.66 21.4304 22.44 21.6804 22.18C22.4304 21.43 22.8604 20.48 22.9504 19.49C22.9604 19.49 22.9604 19.47 22.9604 19.46C22.9804 19.39 22.9804 19.31 22.9804 19.24C22.9804 19.23 22.9904 19.21 22.9904 19.19C23.0504 17.98 22.6104 16.74 21.6804 15.82ZM20.2304 20.71C19.9404 21 19.4704 21 19.1704 20.71L18.5104 20.05L17.8304 20.73C17.5304 21.03 17.0604 21.03 16.7704 20.73C16.4704 20.44 16.4704 19.97 16.7704 19.67L17.4504 18.99L16.7904 18.33C16.5004 18.03 16.5004 17.56 16.7904 17.27C17.0904 16.97 17.5604 16.97 17.8604 17.27L18.5104 17.93L19.1404 17.29C19.4404 17 19.9104 17 20.2104 17.29C20.5004 17.59 20.5004 18.06 20.2104 18.36L19.5704 18.99L20.2304 19.64C20.5304 19.94 20.5304 20.41 20.2304 20.71Z"
                                                            fill="#f11b1b"
                                                        ></path>
                                                    </svg>