 <svg _ngcontent-xsd-c12="" fill="none" height="20" viewBox="0 0 19 20" width="19" xmlns="http://www.w3.org/2000/svg" class="ng-star-inserted">
                                                        <path
                                                            _ngcontent-xsd-c12=""
                                                            clip-rule="evenodd"
                                                            d="M14.083 0.39032H14.9997C17.0247 0.39032 18.6663 2.03194 18.6663 4.05699V9.55699C18.6663 10.5695 17.8455 11.3903 16.833 11.3903H12.2497C11.2372 11.3903 10.4163 12.2111 10.4163 13.2237V16.8903C10.4163 17.9028 9.59553 18.7237 8.58301 18.7237H3.99967C1.97463 18.7237 0.333008 17.082 0.333008 15.057V4.05699C0.333008 2.03194 1.97463 0.39032 3.99967 0.39032H4.91634H5.83301H13.1663H14.083ZM5.83301 5.51062V1.76532H13.1663V5.51062C13.1663 6.32729 12.179 6.73627 11.6015 6.1588L10.1479 4.70517C9.78987 4.34719 9.20947 4.34719 8.85149 4.70517L7.39785 6.15881C6.82039 6.73627 5.83301 6.32729 5.83301 5.51062ZM15.6872 13.2237C15.6872 12.844 15.3794 12.5362 14.9997 12.5362C14.62 12.5362 14.3122 12.844 14.3122 13.2237L14.3122 15.2862H12.2497C11.87 15.2862 11.5622 15.594 11.5622 15.9737C11.5622 16.3533 11.87 16.6612 12.2497 16.6612H14.3122V18.7237C14.3122 19.1033 14.62 19.4112 14.9997 19.4112C15.3794 19.4112 15.6872 19.1033 15.6872 18.7237V16.6612H17.7497C18.1294 16.6612 18.4372 16.3533 18.4372 15.9737C18.4372 15.594 18.1294 15.2862 17.7497 15.2862H15.6872L15.6872 13.2237Z"
                                                            fill="#73b228"
                                                            fill-rule="evenodd"
                                                        ></path>
                                                    </svg>