 <svg _ngcontent-xsd-c12="" fill="none" height="25" viewBox="0 0 24 25" width="24" xmlns="http://www.w3.org/2000/svg" class="ng-star-inserted">
                                                        <path
                                                            _ngcontent-xsd-c12=""
                                                            d="M17.6 5.81L11.95 2.77C11.35 2.45 10.64 2.45 10.04 2.77L4.39998 5.81C3.98998 6.04 3.72998 6.48 3.72998 6.96C3.72998 7.45 3.97998 7.89 4.39998 8.11L10.05 11.15C10.35 11.31 10.68 11.39 11 11.39C11.32 11.39 11.66 11.31 11.95 11.15L17.6 8.11C18.01 7.89 18.27 7.45 18.27 6.96C18.27 6.48 18.01 6.04 17.6 5.81Z"
                                                            fill="#5eb06c"
                                                        ></path>
                                                        <path
                                                            _ngcontent-xsd-c12=""
                                                            d="M9.12 12.21L3.87 9.59C3.46 9.38 3 9.41 2.61 9.64C2.23 9.88 2 10.29 2 10.74V15.7C2 16.56 2.48 17.33 3.25 17.72L8.5 20.34C8.68 20.43 8.88 20.48 9.08 20.48C9.31 20.48 9.55 20.41 9.76 20.29C10.14 20.05 10.37 19.64 10.37 19.19V14.23C10.36 13.37 9.88 12.6 9.12 12.21Z"
                                                            fill="#5eb06c"
                                                        ></path>
                                                        <path
                                                            _ngcontent-xsd-c12=""
                                                            d="M20.0001 10.74V13.2C19.5201 13.06 19.0101 13 18.5001 13C17.1401 13 15.8101 13.47 14.7601 14.31C13.3201 15.44 12.5001 17.15 12.5001 19C12.5001 19.49 12.5601 19.98 12.6901 20.45C12.5401 20.43 12.3901 20.37 12.2501 20.28C11.8701 20.05 11.6401 19.64 11.6401 19.19V14.23C11.6401 13.37 12.1201 12.6 12.8801 12.21L18.1301 9.59C18.5401 9.38 19.0001 9.41 19.3901 9.64C19.7701 9.88 20.0001 10.29 20.0001 10.74Z"
                                                            fill="#5eb06c"
                                                        ></path>
                                                        <path
                                                            _ngcontent-xsd-c12=""
                                                            d="M21.98 16.17C21.16 15.16 19.91 14.52 18.5 14.52C17.44 14.52 16.46 14.89 15.69 15.51C14.65 16.33 14 17.6 14 19.02C14 19.86 14.24 20.66 14.65 21.34C14.92 21.79 15.26 22.18 15.66 22.5H15.67C16.44 23.14 17.43 23.52 18.5 23.52C19.64 23.52 20.67 23.1 21.46 22.4C21.81 22.1 22.11 21.74 22.35 21.34C22.76 20.66 23 19.86 23 19.02C23 17.94 22.62 16.94 21.98 16.17ZM20.76 18.46L18.36 20.68C18.22 20.81 18.03 20.88 17.85 20.88C17.66 20.88 17.47 20.81 17.32 20.66L16.21 19.55C15.92 19.26 15.92 18.78 16.21 18.49C16.5 18.2 16.98 18.2 17.27 18.49L17.87 19.09L19.74 17.36C20.04 17.08 20.52 17.1 20.8 17.4C21.09 17.71 21.07 18.18 20.76 18.46Z"
                                                            fill="#5eb06c"
                                                        ></path>
                                                    </svg>