<svg _ngcontent-xsd-c12="" fill="none" height="21" viewBox="0 0 18 21" width="18" xmlns="http://www.w3.org/2000/svg" class="ng-star-inserted"><path _ngcontent-xsd-c12="" clip-rule="evenodd" d="M7 0.5H11C12.1046 0.5 13 1.39543 13 2.5C13 3.60457 12.1046 4.5 11 4.5H7C5.89543 4.5 5 3.60457 5 2.5C5 1.39543 5.89543 0.5 7 0.5ZM3.50733 2.53003C3.50247 2.60272 3.5 2.67607 3.5 2.74999C3.5 4.54491 4.95507 5.99999 6.75 5.99999H11.25C13.0449 5.99999 14.5 4.54491 14.5 2.74999C14.5 2.67607 14.4975 2.60272 14.4927 2.53003C16.4694 2.77282 18 4.45766 18 6.49999V16.5C18 18.7091 16.2091 20.5 14 20.5H4C1.79086 20.5 0 18.7091 0 16.5V6.49999C0 4.45766 1.53062 2.77282 3.50733 2.53003ZM4.25 8.5C4.25 8.08579 4.58579 7.75 5 7.75H13C13.4142 7.75 13.75 8.08579 13.75 8.5C13.75 8.91421 13.4142 9.25 13 9.25H5C4.58579 9.25 4.25 8.91421 4.25 8.5ZM5 11.75C4.58579 11.75 4.25 12.0858 4.25 12.5C4.25 12.9142 4.58579 13.25 5 13.25H13C13.4142 13.25 13.75 12.9142 13.75 12.5C13.75 12.0858 13.4142 11.75 13 11.75H5ZM4.25 16.5C4.25 16.0858 4.58579 15.75 5 15.75H9C9.41421 15.75 9.75 16.0858 9.75 16.5C9.75 16.9142 9.41421 17.25 9 17.25H5C4.58579 17.25 4.25 16.9142 4.25 16.5Z" fill="#3b7cec" fill-rule="evenodd"></path></svg>