<svg _ngcontent-xsd-c12="" fill="none" height="22" viewBox="0 0 21 22" width="21" xmlns="http://www.w3.org/2000/svg" class="ng-star-inserted">
                                                        <path
                                                            _ngcontent-xsd-c12=""
                                                            clip-rule="evenodd"
                                                            d="M21 10.4999C21 16.0227 16.5228 20.4999 11 20.4999C10.4477 20.4999 10 20.0522 10 19.4999V16.4999C10 15.3953 9.10457 14.4999 8 14.4999H3C1.89543 14.4999 1 13.6044 1 12.4999V10.4999C1 4.97703 5.47715 0.499878 11 0.499878C16.5228 0.499878 21 4.97703 21 10.4999ZM11 3.74988C10.5858 3.74988 10.25 4.08566 10.25 4.49988V8.64526C9.51704 8.94195 9 9.66053 9 10.4999C9 11.6044 9.89543 12.4999 11 12.4999C11.2934 12.4999 11.572 12.4367 11.8231 12.3232C11.8588 12.3981 11.9077 12.4682 11.9697 12.5302L13.4697 14.0302C13.7626 14.3231 14.2374 14.3231 14.5303 14.0302C14.8232 13.7373 14.8232 13.2624 14.5303 12.9695L13.0303 11.4695C12.9683 11.4076 12.8982 11.3587 12.8233 11.3229C12.9368 11.0719 13 10.7933 13 10.4999C13 9.66053 12.483 8.94195 11.75 8.64526V4.49988C11.75 4.08566 11.4142 3.74988 11 3.74988ZM0.25 20.4999C0.25 20.0857 0.585786 19.7499 1 19.7499H7C7.41421 19.7499 7.75 20.0857 7.75 20.4999C7.75 20.9141 7.41421 21.2499 7 21.2499H1C0.585786 21.2499 0.25 20.9141 0.25 20.4999ZM1 16.7499C0.585786 16.7499 0.25 17.0857 0.25 17.4999C0.25 17.9141 0.585786 18.2499 1 18.2499H5C5.41421 18.2499 5.75 17.9141 5.75 17.4999C5.75 17.0857 5.41421 16.7499 5 16.7499H1Z"
                                                            fill="#ffa611"
                                                            fill-rule="evenodd"
                                                        ></path>
                                                    </svg>