<?xml version="1.0" encoding="UTF-8"?>
<svg width="14px" height="15px" viewBox="0 0 14 15" version="1.1" xmlns="http://www.w3.org/2000/svg" xmlns:xlink="http://www.w3.org/1999/xlink">
    <!-- Generator: sketchtool 50.2 (55047) - http://www.bohemiancoding.com/sketch -->
    <title>E8F7B5D6-D4F8-4FC7-8071-DCE971E47A8F@2x</title>
    <desc>Created with sketchtool.</desc>
    <defs></defs>
    <g id="1-Redesign" stroke="none" stroke-width="1" fill="none" fill-rule="evenodd">
        <g id="1-Tao-don-nhap-excel-Copy" transform="translate(-281.000000, -362.000000)" fill="#FFFFFF" fill-rule="nonzero">
            <g id="excel-file" transform="translate(281.000000, 362.000000)">
                <path d="M9.94669922,5.625 L7.96488281,5.625 L6.56258789,7.69089844 L5.16008789,5.625 L3.17833008,5.625 L5.55375,9.17671875 L2.8734668,13.125 L6.71487305,13.125 L6.71487305,11.7835547 L5.82782227,11.7835547 L6.5625293,10.6850098 L8.19430664,13.125 L10.2515625,13.125 L7.57125,9.17671875 L9.94669922,5.625 Z M12.2963965,2.92133789 L10.2036035,0.828632813 C9.74791992,0.372890625 8.84765625,0 8.203125,0 L1.171875,0 C0.52734375,0 0,0.52734375 0,1.171875 L0,13.828125 C0,14.4726562 0.52734375,15 1.171875,15 L11.953125,15 C12.5976562,15 13.125,14.4726562 13.125,13.828125 L13.125,4.921875 C13.125,4.27734375 12.7520801,3.37708008 12.2963965,2.92133789 Z M11.6334961,3.58426758 C11.6793164,3.63011719 11.7250488,3.68642578 11.7694043,3.75 L9.375,3.75 L9.375,1.355625 C9.43857422,1.40000977 9.49488281,1.44571289 9.54070313,1.4915625 L11.6334961,3.58426758 Z M12.1875,13.828125 C12.1875,13.9551562 12.0801562,14.0625 11.953125,14.0625 L1.171875,14.0625 C1.04484375,14.0625 0.9375,13.9551562 0.9375,13.828125 L0.9375,1.171875 C0.9375,1.04484375 1.04484375,0.9375 1.171875,0.9375 L8.203125,0.9375 C8.27390625,0.9375 8.35333008,0.946435547 8.4375,0.962460937 L8.4375,4.6875 L12.1625391,4.6875 C12.1785645,4.77166992 12.1875,4.85106445 12.1875,4.921875 L12.1875,13.828125 Z" id="Shape"></path>
            </g>
        </g>
    </g>
</svg>
